<svg width="324" height="278" viewBox="0 0 324 278" fill="none" xmlns="http://www.w3.org/2000/svg">
<path fill-rule="evenodd" clip-rule="evenodd" d="M220.462 176.116L207.722 276.832L214.402 276.743L227.142 177.059L220.462 176.116Z" fill="#C5C5C5"/>
<path fill-rule="evenodd" clip-rule="evenodd" d="M225.877 176.116L238.617 276.832L231.937 276.743L219.197 177.059L225.877 176.116Z" fill="#C3C3C3"/>
<path fill-rule="evenodd" clip-rule="evenodd" d="M264.716 176.116L277.456 276.832L270.777 276.743L258.037 177.059L264.716 176.116Z" fill="#C3C3C3"/>
<path fill-rule="evenodd" clip-rule="evenodd" d="M168 181.425C168 175.614 172.711 170.903 178.522 170.903H221.703C227.425 170.903 232.207 166.55 232.742 160.853L239.68 87.0503C240.215 81.3537 244.997 77 250.719 77H279.608C285.731 77 290.696 81.9643 290.696 88.088C290.696 88.3713 290.685 88.6545 290.663 88.937L283.539 181.708C283.095 187.486 278.278 191.947 272.483 191.947H178.522C172.711 191.947 168 187.236 168 181.425Z" fill="#C5C5C5"/>
<path fill-rule="evenodd" clip-rule="evenodd" d="M279.325 77C279.577 77 279.827 77.0084 280.074 77.0249C280.091 77.2805 280.1 77.5387 280.1 77.799C280.1 78.0831 280.09 78.3671 280.068 78.6504L272.948 171.1C272.503 176.877 267.687 181.337 261.893 181.337H168.182L168.002 181.334C168.001 181.267 168 181.199 168 181.131C168 175.335 172.699 170.636 178.495 170.636H221.55C227.271 170.636 232.052 166.284 232.589 160.589L239.522 87.0474C240.059 81.352 244.84 77 250.561 77H279.325Z" fill="#B2B0B0"/>
<path fill-rule="evenodd" clip-rule="evenodd" d="M176.486 243.749C176.486 243.749 182.019 257.016 177.484 260.533C172.941 264.05 164.107 272.748 164.107 272.748L192.73 266.54L185.664 242.2L176.486 243.749Z" fill="url(#paint0_linear_4_3)"/>
<path fill-rule="evenodd" clip-rule="evenodd" d="M178.13 252.485C178.13 252.485 178.833 258.711 176.803 260.835C174.773 262.959 163.783 271.046 162.923 272.58C162.062 274.115 163.601 275.809 163.601 275.809C163.601 275.809 175.472 276.84 180.81 273.596C184.665 271.253 190.413 267.045 190.413 267.045L191.935 271.183L196.251 271.007C196.251 271.007 196.822 265.909 195.798 263.465C194.774 261.02 189.5 248.579 189.5 248.579C189.5 248.579 187.47 250.402 185.313 251.32C183.156 252.238 180.453 254.753 180.453 254.753L178.13 252.485Z" fill="#323740"/>
<path fill-rule="evenodd" clip-rule="evenodd" d="M224.37 145.389C214.747 145.818 161.186 157.649 151.455 159.659C141.724 161.669 133.497 172.546 140.917 185.14C149.252 199.278 170.756 239.429 175.977 248.48C178.561 252.96 191.598 250.448 188.535 242.929C182.827 228.912 180.176 193.7 165.621 180.861C165.621 180.861 214.567 189.368 235.71 179.623C251.076 172.539 247.6 144.351 224.37 145.389Z" fill="#42474F"/>
<path fill-rule="evenodd" clip-rule="evenodd" d="M157.239 83.2889C157.239 83.2889 157.348 75.4687 154.609 71.3819C151.87 67.295 151.761 62.9539 149.688 63.096C147.616 63.2381 149.668 73.3284 149.668 73.3284C149.668 73.3284 147.038 72.3249 145.148 71.0555C143.259 69.7862 137.53 63.5284 136.191 64.6373C133.921 66.5268 137.577 77.1848 139.569 79.3156C141.567 81.447 152.482 88.4561 152.482 88.4561L179.217 115.759L184.237 101.889L157.239 83.2889Z" fill="#FFE0D1"/>
<path fill-rule="evenodd" clip-rule="evenodd" d="M216.378 80.7095C211.901 91.079 203.704 110.128 200.325 115.811C196.091 122.929 189.413 126.065 181.595 120.784C180.211 119.849 177.411 117.596 173.196 114.026L180.848 97.2071C184.156 99.9344 185.811 101.298 185.811 101.298C185.811 101.298 194.212 79.7899 200.97 67.3305C206.823 56.5511 223.192 64.9453 216.378 80.7095Z" fill="#FFB66F"/>
<path fill-rule="evenodd" clip-rule="evenodd" d="M185.724 101.309C184.22 106.405 183.292 108.805 182.94 108.51C182.588 108.215 182.723 105.149 183.343 99.3116L185.724 101.309Z" fill="black" fill-opacity="0.159856"/>
<path fill-rule="evenodd" clip-rule="evenodd" d="M182.749 98.1379L176.35 119.541L169.554 114.213L179.013 95.2393L182.749 98.1379Z" fill="#FFEDC2"/>
<path fill-rule="evenodd" clip-rule="evenodd" d="M224.492 8.35547C224.492 8.35547 227.854 2.81136 233.185 3.22775C238.516 3.64414 244.985 11.7678 244.647 20.7683C244.319 29.7677 246.303 31.1835 250.128 36.3885C260.405 50.3923 244.523 66.786 244.523 66.786L223.416 66.7914L222.612 27.5335L224.492 8.35547Z" fill="#42474F"/>
<path fill-rule="evenodd" clip-rule="evenodd" d="M232.864 11.5997C247.247 21.4177 239.004 32.811 237.564 35.4861C234.797 54.9514 240.502 55.951 249.111 60.3007L246.116 65.6522L233.779 63.3298L223.372 12.5824L232.864 11.5997Z" fill="black" fill-opacity="0.199355"/>
<path fill-rule="evenodd" clip-rule="evenodd" d="M239.65 58.982C239.65 58.982 232.319 57.5105 232.102 47.24C231.884 36.9696 233.091 33.4637 233.091 33.4637L219.267 33.2146C219.267 33.2146 219.117 44.6609 219.114 48.8011C219.109 58.8677 211.35 60.0353 211.35 60.0353C211.35 60.0353 212.963 67.9985 225.49 68.7019C235.27 69.252 239.65 58.982 239.65 58.982Z" fill="#F9C7B0"/>
<path fill-rule="evenodd" clip-rule="evenodd" d="M232.579 11.2648C233.082 5.34092 223.306 3.90035 221.496 8.47584C221.496 8.47584 220.998 12.5534 224.18 14.1447C228.483 16.2882 232.579 11.2648 232.579 11.2648Z" fill="#FB9934"/>
<path fill-rule="evenodd" clip-rule="evenodd" d="M233.884 26.5234C239.867 25.0081 240.757 34.0367 234.488 35.3567C234.488 35.3567 233.512 48.6588 220.876 51.3447C210.613 53.5261 206.842 39.0657 206.13 36.1725C205.369 33.0879 203.188 22.8868 203.188 22.8868L232.049 16.7381L233.884 26.5234Z" fill="#FFE0D1"/>
<path fill-rule="evenodd" clip-rule="evenodd" d="M231.875 32.6349C230.788 32.5728 229.3 26.9368 229.3 26.9368C226.097 26.9807 225.409 26.4026 222.277 23.0908C212.43 27.4791 205.569 29.6383 206.267 37.3741C206.267 37.3741 194.819 21.603 207.075 12.5274C217.857 4.55244 231.539 6.98396 235.755 16.013C238.737 22.3853 237.998 27.6875 237.998 27.6875C237.998 27.6875 235.906 25.5326 233.471 26.6995C231.036 27.8663 232.962 32.697 231.875 32.6349Z" fill="#42474F"/>
<path d="M221.523 42.4103C221.523 42.4103 219.054 45.5953 215.062 43.9529" stroke="#F77B7B" stroke-width="1.5" stroke-linecap="round"/>
<path d="M220.163 45.7801C219.318 46.4107 218.423 46.6337 217.527 46.3745" stroke="#F49494" stroke-linecap="round"/>
<path d="M234.277 31.3971C233.915 29.9956 234.108 28.7802 235.505 28.2474" stroke="#F77B7B" stroke-linecap="round"/>
<path fill-rule="evenodd" clip-rule="evenodd" d="M214.241 58.6632C214.072 58.655 208.16 61.2456 207.48 62.2443C203.045 68.7507 194.902 91.6508 194.483 96.6186C194.011 102.349 202.271 111.477 202.373 119.773C202.462 128.07 198.839 153.05 200.245 155.383C201.639 157.717 210.804 168.801 212.716 168.847C214.639 168.892 216.074 163.072 218.986 163.199C221.888 163.325 227.937 171.041 230.546 170.986C233.144 170.929 260.065 153.875 258.007 149.016C255.938 144.157 246.334 132.081 247.313 125.46C248.28 118.841 256.005 94.4037 258.794 86.0867C261.572 77.7697 263.809 71.1443 258.625 67.5655C253.441 63.9867 236.574 57.4405 236.574 57.4405L221.471 65.8886C221.471 65.8886 215.118 58.7054 214.241 58.6632Z" fill="#FF9F43"/>
<path fill-rule="evenodd" clip-rule="evenodd" d="M219.611 65.6537C215.081 80.7167 208.865 95.5588 206.375 109.683L213.617 105.781L220.296 110.843C219.825 96.1582 222.29 80.7395 223.423 65.6537H219.611Z" fill="#FFF6E1"/>
<path fill-rule="evenodd" clip-rule="evenodd" d="M246.067 77.2197L246.239 78.4378C248.268 93.5643 245.867 111.92 241.705 114.72C237.457 117.579 220.923 114.773 220.923 117.037C220.923 119.301 243.772 140.048 240.021 149.967C237.959 155.42 238.649 160.27 242.093 164.516L243.093 163.844C250.897 158.55 259.183 151.792 258.007 149.016C255.938 144.157 246.334 132.081 247.313 125.46C248.241 119.105 255.398 96.3302 258.436 87.16L259.404 84.2525C260.529 80.8435 261.465 77.7554 261.692 75.091L260.994 74.6383C249.833 67.4842 244.858 68.3449 246.067 77.2197Z" fill="black" fill-opacity="0.159856"/>
<path fill-rule="evenodd" clip-rule="evenodd" d="M239.361 58.5072L236.574 57.4405L221.14 65.4514C221.14 65.4514 224.042 72.8363 229.181 69.1588C233.586 66.0142 231.728 63.2469 235.18 61.8194C238.622 60.392 239.361 58.5072 239.361 58.5072Z" fill="#FFF6E1"/>
<path fill-rule="evenodd" clip-rule="evenodd" d="M221.14 65.4514C220.021 67.9363 217.747 69.3883 216.571 68.9369C214.63 68.1913 215.463 65.2208 214.699 63.7202C214.151 62.6555 213.797 62.4948 213.317 61.4952C212.872 60.5783 212.854 59.4777 212.968 59.1741L214.486 58.484C215.877 59.7958 216.896 60.7995 217.543 61.4952C218.35 62.3621 219.549 63.6809 221.14 65.4514Z" fill="#FFF6E1"/>
<path fill-rule="evenodd" clip-rule="evenodd" d="M238.132 105.348C238.132 105.348 229.045 97.3166 226.264 96.3845C223.482 95.4524 207.191 94.3327 207.294 96.4389C207.411 98.6953 216.161 98.5655 217.067 99.6756C217.974 100.785 218.18 108.372 221.607 109.224C225.027 110.076 235.281 111.544 235.281 111.544L259.809 126.318L260.857 112.819L238.132 105.348Z" fill="#FFE0D1"/>
<path fill-rule="evenodd" clip-rule="evenodd" d="M262.305 71.3415C271.878 84.8351 280.051 105.389 283.188 113.402C286.326 121.416 283.161 133.503 269.366 131.13C267.812 130.863 265.294 130.194 261.811 129.122L258.514 110.563C261.349 111.752 262.766 112.346 262.766 112.346C262.766 112.346 249.055 88.0736 245.707 81.5668C240.114 70.7 253.873 59.4524 262.305 71.3415Z" fill="#FFB66F"/>
<path fill-rule="evenodd" clip-rule="evenodd" d="M262.766 112.346C267.409 114.611 269.439 115.245 268.855 114.249C268.271 113.253 265.366 111.045 260.139 107.626L262.766 112.346Z" fill="black" fill-opacity="0.159856"/>
<path fill-rule="evenodd" clip-rule="evenodd" d="M262.102 111.488L264.38 131.557L255.373 128.698L256.732 109.031L262.102 111.488Z" fill="#FFEDC2"/>
<path fill-rule="evenodd" clip-rule="evenodd" d="M143.061 244.197C143.061 244.197 143.227 257.333 132.39 262.244C121.56 267.154 113.843 266.858 114.825 270.655C115.808 274.451 143.998 274.298 146.631 271.329C148.875 268.803 153.754 245.284 155.098 247.082L143.061 244.197Z" fill="url(#paint1_linear_4_3)"/>
<path fill-rule="evenodd" clip-rule="evenodd" d="M153.169 254.551C153.169 254.551 150.892 260.129 150.691 263.51C150.49 266.892 145.305 276.504 145.305 276.504L141.209 277.018L140.835 273.533C140.835 273.533 134.906 276.056 131.187 276.459C127.468 276.862 114.712 275.348 112.176 273.242C109.639 271.137 110.92 268.173 118.243 266.367C125.564 264.56 136.939 259.283 139.104 255.462C141.268 251.64 141.282 251.739 141.282 251.739L141.238 258.107C141.238 258.107 143.112 254.755 145.324 254.308C147.535 253.861 153.169 254.551 153.169 254.551Z" fill="#323740"/>
<path fill-rule="evenodd" clip-rule="evenodd" d="M253.468 141.328C265.608 159.596 264.42 172.81 249.907 180.969C231.315 191.422 173.971 179.179 173.971 179.179C173.971 179.179 174.988 187.357 173.971 194.652C171.315 213.703 158.681 245.443 156.008 249.431C152.311 254.946 141.051 250.787 140.839 246.195C140.626 241.602 149.327 182.951 150.65 171.766C151.967 160.581 156.122 158.957 168.26 155.899C171.049 155.197 204.024 147.012 207.045 147.251C224.349 148.617 239.823 146.643 253.468 141.328Z" fill="#42474F"/>
<path opacity="0.439941" fill-rule="evenodd" clip-rule="evenodd" d="M240.241 177.924C221.416 180.031 171.579 175.688 169.578 177.661C167.667 179.545 167.986 212.321 163.698 231.29C167.921 219.796 172.492 205.258 173.971 194.652C174.989 187.357 173.971 179.179 173.971 179.179L175.919 179.567C186.079 181.538 233.182 190 249.907 180.969C259.717 175.672 263.512 167.471 261.293 156.365C258.618 169.466 251.6 176.653 240.241 177.924Z" fill="white" fill-opacity="0.192499"/>
<path d="M143.926 178.913C142.223 179.306 140.26 177.097 139.54 173.979C138.82 170.862 139.617 168.016 141.319 167.623C143.022 167.23 144.985 169.438 145.705 172.556C146.425 175.674 145.628 178.52 143.926 178.913Z" fill="white" fill-opacity="0.192499"/>
<path d="M155.646 175.657C153.406 175.015 152.371 171.774 153.333 168.419C154.295 165.063 156.89 162.864 159.13 163.506C161.369 164.148 162.405 167.388 161.442 170.744C160.48 174.099 157.885 176.299 155.646 175.657Z" fill="white" fill-opacity="0.192499"/>
<path d="M110.776 63.2724L140.773 60.0859C141.749 59.9822 142.694 60.4679 143.178 61.3222L162.486 95.4274C163.157 96.6116 162.74 98.1151 161.556 98.7855C161.308 98.9257 161.038 99.022 160.758 99.07L130.88 104.185C129.837 104.364 128.797 103.857 128.295 102.926L108.868 66.8919C108.222 65.6941 108.67 64.1995 109.867 63.5537C110.149 63.4018 110.458 63.3062 110.776 63.2724Z" fill="#7596FF"/>
<path fill-rule="evenodd" clip-rule="evenodd" d="M111.985 63.1743L141.238 58.58C142.276 58.4171 143.303 58.9299 143.796 59.8574L162.357 94.765C162.996 95.9665 162.54 97.4585 161.338 98.0974C161.096 98.226 160.835 98.3134 160.564 98.3559L131.311 102.95C130.273 103.113 129.246 102.6 128.753 101.673L110.192 66.7653C109.553 65.5637 110.009 64.0718 111.211 63.4329C111.453 63.3042 111.715 63.2169 111.985 63.1743Z" fill="url(#paint2_linear_4_3)"/>
<path d="M111.372 65.4943L142.203 60.2701L161.186 95.9733L130.503 100.614L111.372 65.4943Z" fill="white"/>
<path d="M119.721 59.7298L131.845 58.0909C132.484 58.0046 133.112 58.3097 133.438 58.8649L135.648 62.6188C135.872 62.9996 135.745 63.49 135.364 63.7141C135.272 63.768 135.171 63.8032 135.065 63.8174L122.941 65.4563C122.303 65.5426 121.675 65.2375 121.348 64.6823L119.138 60.9284C118.914 60.5476 119.041 60.0573 119.422 59.8332C119.514 59.7792 119.615 59.7441 119.721 59.7298Z" fill="#4261EE"/>
<path fill-rule="evenodd" clip-rule="evenodd" d="M135.438 70.6871C135.849 70.4689 136.358 70.625 136.577 71.0358C136.78 71.4172 136.66 71.8842 136.313 72.1237L136.229 72.1747L122.508 74.4731C122.098 74.6914 121.588 74.5353 121.369 74.1245C121.167 73.743 121.286 73.2761 121.633 73.0366L121.717 72.9855L135.438 70.6871Z" fill="#A7C3FF"/>
<path fill-rule="evenodd" clip-rule="evenodd" d="M139.393 78.1252C139.804 77.907 140.313 78.0631 140.532 78.4739C140.735 78.8554 140.615 79.3223 140.268 79.5618L140.184 79.6129L126.463 81.9113C126.053 82.1295 125.543 81.9734 125.324 81.5626C125.122 81.1811 125.241 80.7142 125.588 80.4747L125.672 80.4236L139.393 78.1252Z" fill="#A7C3FF"/>
<path fill-rule="evenodd" clip-rule="evenodd" d="M143.348 85.5634C143.759 85.3452 144.268 85.5013 144.487 85.9121C144.69 86.2935 144.57 86.7605 144.223 87L144.139 87.0511L130.418 89.3494C130.008 89.5677 129.498 89.4116 129.279 89.0008C129.076 88.6193 129.196 88.1524 129.543 87.9129L129.627 87.8618L143.348 85.5634Z" fill="#A7C3FF"/>
<path fill-rule="evenodd" clip-rule="evenodd" d="M108.628 142.303H129.867V277.293H108.628V142.303Z" fill="#C5C5C5"/>
<path fill-rule="evenodd" clip-rule="evenodd" d="M108.628 137H121.371V277.293H108.628V137Z" fill="#DBDBDB"/>
<path fill-rule="evenodd" clip-rule="evenodd" d="M12 142.303H117.132V182.791H33.2388V277.293H12V142.303Z" fill="#C5C5C5"/>
<path fill-rule="evenodd" clip-rule="evenodd" d="M12 142.303H24.7433V277.293H12V142.303Z" fill="#DBDBDB"/>
<path fill-rule="evenodd" clip-rule="evenodd" d="M274.911 142.303H296.15V277.293H274.911V142.303Z" fill="#C5C5C5"/>
<path fill-rule="evenodd" clip-rule="evenodd" d="M178.283 142.303H283.415V192.421H199.522V277.293H178.283V142.303Z" fill="#C5C5C5"/>
<path fill-rule="evenodd" clip-rule="evenodd" d="M28.9826 137L190.903 137V192.323H28.9826V137Z" fill="#DBDBDB"/>
<path fill-rule="evenodd" clip-rule="evenodd" d="M175.097 142.303H187.841V192.323H175.097V142.303Z" fill="#C3C3C3"/>
<path fill-rule="evenodd" clip-rule="evenodd" d="M178.283 142.303H191.026V277.293H178.283V142.303Z" fill="#DBDBDB"/>
<path fill-rule="evenodd" clip-rule="evenodd" d="M190.536 137H299.885C304.278 137 307.84 140.562 307.84 144.955C307.84 149.348 304.278 152.91 299.885 152.91H190.536C186.143 152.91 182.582 149.348 182.582 144.955C182.582 140.562 186.143 137 190.536 137Z" fill="#C5C5C5"/>
<path fill-rule="evenodd" clip-rule="evenodd" d="M16.3627 140.182H178.283V156.092H16.3627V140.182Z" fill="#C3C3C3"/>
<path fill-rule="evenodd" clip-rule="evenodd" d="M8.6008 137H193.691C198.084 137 201.646 140.562 201.646 144.955C201.646 149.348 198.084 152.91 193.691 152.91H8.6008C4.20742 152.91 0.645874 149.348 0.645874 144.955C0.645874 140.562 4.20742 137 8.6008 137Z" fill="#DBDBDB"/>
<path fill-rule="evenodd" clip-rule="evenodd" d="M216.726 122.908H222.115C223.156 122.908 224 123.691 224 124.658V127.055C224 129.345 222 131.202 219.534 131.202H216.726C216.28 131.202 215.918 130.866 215.918 130.452C215.918 130.038 216.28 129.702 216.726 129.702H219.534C221.108 129.702 222.385 128.517 222.385 127.055V124.658C222.385 124.52 222.264 124.408 222.115 124.408H216.726C216.28 124.408 215.918 124.072 215.918 123.658C215.918 123.244 216.28 122.908 216.726 122.908Z" fill="#607BF6"/>
<path fill-rule="evenodd" clip-rule="evenodd" d="M198.83 121C197.64 121 196.676 121.895 196.676 123V128C196.676 131.6 199.602 134.565 203.367 134.956L203.368 136H212.796L212.796 134.933C216.466 134.462 219.291 131.537 219.291 128V123C219.291 121.895 218.327 121 217.137 121H198.83Z" fill="#4261EE"/>
<path fill-rule="evenodd" clip-rule="evenodd" d="M219.192 135H197.577C197.301 135 197.077 135.224 197.077 135.5C197.077 135.781 197.295 136.013 197.576 136.031L205.526 136.522H211.18L219.193 136.031C219.474 136.013 219.692 135.781 219.692 135.5C219.692 135.224 219.468 135 219.192 135Z" fill="#607BF6"/>
<path fill-rule="evenodd" clip-rule="evenodd" d="M76.97 133.662H179.5C180.299 133.662 180.946 134.309 180.946 135.108C180.946 135.906 180.299 136.554 179.5 136.554H76.97C76.1714 136.554 75.524 135.906 75.524 135.108C75.524 134.309 76.1714 133.662 76.97 133.662Z" fill="#607BF6"/>
<path fill-rule="evenodd" clip-rule="evenodd" d="M146.415 133.662H179.5C180.299 133.662 180.946 134.309 180.946 135.108C180.946 135.906 180.299 136.554 179.5 136.554H146.415C145.617 136.554 144.969 135.906 144.969 135.108C144.969 134.309 145.617 133.662 146.415 133.662Z" fill="#4261EE"/>
<path fill-rule="evenodd" clip-rule="evenodd" d="M74.0973 90H138.429C140.238 90 141.766 91.3427 141.999 93.1368L146.747 129.723C147.002 131.695 145.611 133.501 143.64 133.757C143.486 133.777 143.331 133.786 143.177 133.786H78.8449C77.0358 133.786 75.5077 132.444 75.2749 130.65L70.5273 94.0633C70.2714 92.0916 71.6624 90.2858 73.6341 90.03C73.7877 90.01 73.9424 90 74.0973 90Z" fill="#4261EE"/>
<path fill-rule="evenodd" clip-rule="evenodd" d="M74.0973 90H136.156C137.965 90 139.493 91.3427 139.726 93.1368L144.474 129.723C144.73 131.695 143.339 133.501 141.367 133.757C141.213 133.777 141.059 133.786 140.904 133.786H78.8449C77.0358 133.786 75.5077 132.444 75.2749 130.65L70.5273 94.0633C70.2714 92.0916 71.6624 90.2858 73.6341 90.03C73.7877 90.01 73.9424 90 74.0973 90Z" fill="url(#paint3_linear_4_3)"/>
<path d="M109.279 116.499C111.264 115.003 111.555 112.04 109.928 109.881C108.302 107.722 105.373 107.185 103.388 108.681C101.402 110.177 101.111 113.14 102.738 115.299C104.365 117.458 107.293 117.995 109.279 116.499Z" fill="white"/>
<path fill-rule="evenodd" clip-rule="evenodd" d="M290.972 227.156C299.725 207.306 307.678 186.92 314.958 166.084C298.189 181.927 285.148 201.229 287.005 227.156H290.972Z" fill="#57E295"/>
<path fill-rule="evenodd" clip-rule="evenodd" d="M286.306 229.229C284.234 195.383 285.112 163.949 302.477 146C300.082 183.161 295.601 209.34 289.926 229.229H286.306Z" fill="#28C76F"/>
<path fill-rule="evenodd" clip-rule="evenodd" d="M285.509 225.704C275.807 202.052 266.058 195.273 258 170.995C284.373 184.702 286.027 196.021 291.203 225.704H285.509Z" fill="#57E295"/>
<path fill-rule="evenodd" clip-rule="evenodd" d="M280.288 225.704L262.883 202.052C271.289 204.454 285.339 208.343 285.339 225.704H280.288Z" fill="#28C76F"/>
<path fill-rule="evenodd" clip-rule="evenodd" d="M296.566 225.704H302.372C306.062 217.982 311.261 212.666 323.84 219.11C315.595 206.521 298.677 202.711 296.566 225.704Z" fill="#57E295"/>
<path fill-rule="evenodd" clip-rule="evenodd" d="M291.225 225.704H296.053C304.915 213.002 308.724 207.468 317.895 196.62C305.814 201.215 293.414 207.468 291.225 225.704Z" fill="#28C76F"/>
<path d="M279.088 223.871H303.478C304.407 223.871 305.16 224.622 305.16 225.548V230.161C311.328 237.918 314.412 245.675 314.412 253.433C314.412 260.951 311.778 268.47 306.511 275.988C306.197 276.437 305.682 276.705 305.132 276.705H277.433C276.884 276.705 276.369 276.437 276.054 275.988C270.787 268.47 268.154 260.951 268.154 253.433C268.154 245.822 271.122 238.211 277.06 230.6L277.405 230.161V225.548C277.405 224.622 278.159 223.871 279.088 223.871Z" fill="#4261EE"/>
<mask id="mask0_4_3" style="mask-type:luminance" maskUnits="userSpaceOnUse" x="268" y="223" width="47" height="54">
<path d="M279.088 223.871H303.478C304.407 223.871 305.16 224.622 305.16 225.548V230.161C311.328 237.918 314.412 245.675 314.412 253.433C314.412 260.951 311.778 268.47 306.511 275.988C306.197 276.437 305.682 276.705 305.132 276.705H277.433C276.884 276.705 276.369 276.437 276.054 275.988C270.787 268.47 268.154 260.951 268.154 253.433C268.154 245.822 271.122 238.211 277.06 230.6L277.405 230.161V225.548C277.405 224.622 278.159 223.871 279.088 223.871Z" fill="white"/>
</mask>
<g mask="url(#mask0_4_3)">
<path fill-rule="evenodd" clip-rule="evenodd" d="M262.266 222.418H284.134C273.665 246.718 294.316 261.108 284.134 285.316H262.266V222.418Z" fill="#607BF6"/>
</g>
<defs>
<linearGradient id="paint0_linear_4_3" x1="-1045.28" y1="-618.815" x2="-1265.17" y2="3021.97" gradientUnits="userSpaceOnUse">
<stop stop-color="#FDC6C6"/>
<stop offset="1" stop-color="#FAB2B2"/>
</linearGradient>
<linearGradient id="paint1_linear_4_3" x1="-1552.55" y1="499.035" x2="-1717.58" y2="2360.14" gradientUnits="userSpaceOnUse">
<stop stop-color="#FDC6C6"/>
<stop offset="1" stop-color="#FAB2B2"/>
</linearGradient>
<linearGradient id="paint2_linear_4_3" x1="754.818" y1="-3535.17" x2="4646.39" y2="3783.8" gradientUnits="userSpaceOnUse">
<stop stop-color="#7367F0"/>
<stop offset="1" stop-color="#8CA5FF"/>
</linearGradient>
<linearGradient id="paint3_linear_4_3" x1="5152.53" y1="-2235.37" x2="5152.53" y2="4468.65" gradientUnits="userSpaceOnUse">
<stop stop-color="#607BF6"/>
<stop offset="1" stop-color="#607BF6"/>
</linearGradient>
</defs>
</svg>
